<svg width="77" height="90" viewBox="0 0 77 90" fill="none" xmlns="http://www.w3.org/2000/svg">
<path d="M7.0051 81.0032L0 0H77L69.9855 80.9904L38.4532 90L7.0051 81.0032Z" fill="#1572B6"/>
<path d="M38.5 83.115L63.9816 75.8346L69.9762 6.62468H38.5V83.115Z" fill="#33A9DC"/>
<path d="M38.5 35.9711H51.2564L52.136 25.7979H38.5V15.8625H62.6717L62.4409 18.5272L60.0736 45.9065H38.5V35.9711Z" fill="white"/>
<path d="M38.5592 61.7722L38.5155 61.7851L27.7802 58.7958L27.094 50.8725H17.416L18.7665 66.4715L38.5124 72.1222L38.5592 72.1094V61.7722Z" fill="#EBEBEB"/>
<path d="M50.4361 45.4854L49.2758 58.7893L38.5249 61.7786V72.1157L58.2864 66.4714L58.433 64.7936L60.1078 45.4854H50.4361Z" fill="white"/>
<path d="M38.5346 15.8625V25.7979H15.2487L15.0553 23.564L14.6156 18.5272L14.3848 15.8625H38.5346Z" fill="#EBEBEB"/>
<path d="M38.5001 35.971V45.9064H27.8989L27.7055 43.6725L27.2689 38.6357L27.0381 35.971H38.5001Z" fill="#EBEBEB"/>
</svg>
