<svg width="104" height="19" viewBox="0 0 104 19" fill="none" xmlns="http://www.w3.org/2000/svg">
<path d="M18.2388 18.0117H15.2856L13.5044 8.75391L10.0474 18.2344H8.95752L5.50049 8.75391L3.64893 18.0117H0.70752L4.16455 0.832031H5.78174L9.49658 12.3984L13.1294 0.832031H14.7349L18.2388 18.0117ZM27.2505 10.957V18H24.2036V10.957L18.4146 0.832031H21.6489L25.7153 8.15625L29.7935 0.832031H33.0161L27.2505 10.957Z" fill="#7177F1"/>
<path d="M47.981 18.2344H46.7505L44.8872 7.75781L39.3208 18.2344H38.0903L35.6646 0.832031H38.77L40.0708 11.2383L45.4849 0.832031H46.8091L48.4028 11.168L53.4185 0.832031H56.7231L47.981 18.2344ZM56.4771 11.6133C56.4771 8.55859 57.3091 5.94922 58.9731 3.78516C60.645 1.61328 62.8169 0.527344 65.4888 0.527344C67.5435 0.527344 69.1255 1.07422 70.2349 2.16797C71.3442 3.25391 71.8989 4.82812 71.8989 6.89062C71.8989 10.2734 71.0474 13.0195 69.3442 15.1289C67.6411 17.2383 65.3091 18.293 62.3481 18.293C60.5356 18.293 59.1021 17.6836 58.0474 16.4648C57.0005 15.2383 56.4771 13.6211 56.4771 11.6133ZM59.6411 11.2969C59.6411 12.6172 59.9028 13.668 60.4263 14.4492C60.9497 15.2305 61.7153 15.6211 62.7231 15.6211C64.5825 15.6211 66.0513 14.7852 67.1294 13.1133C68.2075 11.4414 68.7466 9.44531 68.7466 7.125C68.7466 4.5 67.5903 3.1875 65.2778 3.1875C63.6528 3.1875 62.3052 4.04688 61.2349 5.76562C60.1724 7.48438 59.6411 9.32812 59.6411 11.2969ZM82.0708 10.3945L85.9028 18H82.4692L79.188 10.8984C78.6567 10.8906 78.0044 10.8594 77.231 10.8047L75.9067 18H72.7661L75.9067 0.832031C78.188 0.714844 79.6841 0.65625 80.395 0.65625C82.2466 0.65625 83.7075 1.01563 84.7778 1.73438C85.856 2.44531 86.395 3.47656 86.395 4.82812C86.395 6.20312 86.0005 7.39844 85.2114 8.41406C84.4302 9.42188 83.3833 10.082 82.0708 10.3945ZM78.5669 3.46875L77.688 8.27344C78.1489 8.32031 78.5591 8.34375 78.9185 8.34375C81.8716 8.34375 83.3481 7.40625 83.3481 5.53125C83.3481 4.74219 83.063 4.18359 82.4927 3.85547C81.9302 3.51953 80.9927 3.35156 79.6802 3.35156C79.5708 3.35156 79.1997 3.39062 78.5669 3.46875ZM96.6958 8.37891L100.961 18H97.5278L94.3169 10.6641L91.8794 13.3477L91.0122 18H87.9653L91.1177 0.832031H94.1646L92.7466 8.63672L99.8716 0.832031H103.481L96.6958 8.37891Z" fill="#323232"/>
</svg>
