<svg width="90" height="90" viewBox="0 0 90 90" fill="none" xmlns="http://www.w3.org/2000/svg">
<path d="M75 0H15C11.0248 0.00990093 7.21524 1.59343 4.40434 4.40434C1.59343 7.21524 0.00990093 11.0248 0 15V75C0 83.25 6.75 90 15 90H75C83.25 90 90 83.25 90 75V15C90 6.75 83.25 0 75 0ZM66.7988 63.2062C66.0488 65.0137 64.86 66.6075 63.3375 67.8338C61.7625 69.1087 59.7675 70.1588 57.3112 70.9088C54.8587 71.67 51.9412 72.0525 48.5625 72.0525H24.4425V19.5525H49.95C54.6675 19.5525 58.4475 20.6137 61.275 22.7775C64.125 24.9525 65.5425 28.1925 65.5425 32.565C65.5425 35.2088 64.8975 37.4775 63.6 39.3525C62.31 41.2163 60.45 42.675 58.05 43.6875V43.86C61.2525 44.535 63.7313 46.0537 65.3625 48.4163C66.9938 50.7788 67.83 53.7638 67.83 57.3675C67.83 59.385 67.44 61.305 66.705 63.0975L66.7988 63.1988V63.2062ZM56.3887 50.2687C54.8512 48.8625 52.6912 48.1763 49.9012 48.1763H33.6937V64.5563H49.9463C52.7213 64.5563 54.8962 63.8363 56.4338 62.3813C57.9712 60.9375 58.7587 58.8787 58.7587 56.2313C58.7325 53.6437 57.9712 51.6413 56.4338 50.2687H56.37H56.3887ZM54.1388 39.6825C55.6238 38.4225 56.3512 36.6187 56.3512 34.2675C56.3512 31.6275 55.695 29.7525 54.3638 28.68C53.0438 27.6112 51.1387 27.0563 48.6338 27.0563H33.6338V41.5425H48.6338C50.82 41.5425 52.6838 40.905 54.1237 39.6825H54.1388Z" fill="#790FF1"/>
</svg>
